<svg enable-background="new 0 0 100 100" viewBox="12 5 76 75" xmlns="http://www.w3.org/2000/svg"><path d="m78.776 15.712c-.442-.078-.893-.117-1.339-.117-1.469 0-2.85.42-4.027 1.147-.246-.924-.648-1.811-1.213-2.618-1.271-1.815-3.172-3.026-5.353-3.411-.48-.084-.968-.127-1.451-.127-1.862 0-3.592.621-4.989 1.676-1.023-2.962-3.579-5.302-6.879-5.884-3.298-.58-6.503.746-8.48 3.183-.055-.083-.102-.17-.159-.252-1.271-1.815-3.173-3.027-5.355-3.412s-4.383.104-6.2 1.375c-1.815 1.271-3.027 3.173-3.411 5.355 0 0-3.005 17.097-3.025 17.294l-9.136 9.135c-3.833 3.833-3.833 10.072 0 13.908 0 0 13.065 13.059 13.199 13.177v26.949c0 .925.75 1.674 1.673 1.674h39.446c.922 0 1.672-.749 1.672-1.674v-25.647l.847-.847c6.262-6.264 8.71-15.34 6.52-23.883.597-.876 1.022-1.885 1.217-2.988l2.667-15.127c.732-4.164-2.06-8.15-6.224-8.886zm-18.248 2.311c.417-2.371 2.464-4.091 4.865-4.091.288 0 .581.026.869.077 1.301.229 2.436.952 3.193 2.035.76 1.083 1.051 2.396.82 3.699l-2.947 16.708c-.42 2.367-2.464 4.086-4.863 4.086-.288 0-.581-.026-.869-.077-1.302-.229-2.436-.953-3.194-2.035-.758-1.083-1.05-2.396-.82-3.698zm-14.035-3.831c.533-3.024 3.425-5.052 6.452-4.517 3.024.533 5.052 3.427 4.52 6.451l-3.223 18.27c-.295 1.675-1.339 3.094-2.799 3.901l-7.82-7.821zm-13.277-.984c.229-1.301.952-2.436 2.035-3.195 1.084-.759 2.401-1.049 3.699-.82 1.302.229 2.437.953 3.195 2.036.759 1.083 1.049 2.395.82 3.696l-2.263 12.833c-2.915-2.09-6.716-2.393-9.891-.909zm39.013 51.022-1.338 1.337c-.313.314-.488.739-.488 1.184v24.666h-36.098v-26.072c0-.524-.245-1.019-.664-1.335-.288-.218-13.515-13.412-13.515-13.412-2.53-2.53-2.53-6.646 0-9.176l10.267-10.267c2.528-2.528 6.645-2.529 9.175 0 0 0 13.538 13.527 13.884 13.863 1.385 1.342 2.816 2.731 2.824 3.642.003.4-.288.896-.866 1.475-4.646 4.645-10.186.863-19.581-6.222-.735-.555-1.785-.41-2.344.328-.556.738-.409 1.787.329 2.344 6.046 4.56 11.86 8.946 17.162 8.945.271 0 .538-.015.806-.038 1.678 4.728 1.173 10.003-1.436 14.352-.477.793-.219 1.82.574 2.296.27.161.565.238.859.238.567 0 1.123-.289 1.435-.812 3.092-5.153 3.715-11.391 1.783-17.008.947-.485 1.877-1.152 2.78-2.056 1.252-1.254 1.854-2.519 1.845-3.867-.019-2.311-1.874-4.112-3.839-6.018-.335-.324-1.914-1.893-1.914-1.893.48-.336.915-.725 1.318-1.145.144.262.299.518.473.766 1.271 1.816 3.174 3.028 5.355 3.412.479.085.967.128 1.45.128 2.076 0 3.99-.771 5.458-2.058.167.332.353.657.569.967 1.175 1.679 2.936 2.799 4.951 3.154.443.079.895.118 1.341.118 1.237 0 2.411-.3 3.456-.828 1.192 6.887-1 13.981-6.011 18.992zm9.475-40.212-2.668 15.127c-.364 2.071-2.153 3.574-4.251 3.574-.252 0-.508-.022-.759-.066-1.139-.201-2.13-.833-2.793-1.779s-.916-2.093-.716-3.23l2.668-15.132c.368-2.068 2.154-3.57 4.252-3.57.252 0 .506.022.757.066 2.349.415 3.922 2.662 3.51 5.01z"/></svg>