<?xml version="1.0" encoding="UTF-8" standalone="no"?>
<svg
   viewBox="0 0 21 21.011339"
   version="1.1"
   id="svg4"
   sodipodi:docname="fistRight.svg"
   width="21"
   height="21.011339"
   inkscape:version="1.2.2 (732a01da63, 2022-12-09)"
   xmlns:inkscape="http://www.inkscape.org/namespaces/inkscape"
   xmlns:sodipodi="http://sodipodi.sourceforge.net/DTD/sodipodi-0.dtd"
   xmlns="http://www.w3.org/2000/svg"
   xmlns:svg="http://www.w3.org/2000/svg">
  <defs
     id="defs8" />
  <sodipodi:namedview
     id="namedview6"
     pagecolor="#505050"
     bordercolor="#eeeeee"
     borderopacity="1"
     inkscape:showpageshadow="0"
     inkscape:pageopacity="0"
     inkscape:pagecheckerboard="0"
     inkscape:deskcolor="#505050"
     showgrid="false"
     inkscape:zoom="32.09375"
     inkscape:cx="10.001947"
     inkscape:cy="10.001947"
     inkscape:window-width="3440"
     inkscape:window-height="1369"
     inkscape:window-x="-8"
     inkscape:window-y="-8"
     inkscape:window-maximized="1"
     inkscape:current-layer="svg4" />
  <path
     d="M 0,10.011338 C 0,8.9488384 0.5625,8.0152444 1.40625,7.4800884 1.15625,7.0425884 1,6.5464944 1,6.0113384 1,4.3668074 2.355469,3.0113389 4,3.0113389 h 3.656249 l 0.15625,-0.125 c 0.08594,-0.074219 0.164063,-0.144531 0.25,-0.21875 0.597656,-0.511719 1.230469,-1 1.875,-1.4375 l 0.40625,-0.31249999 c 0.550781,-0.425781 1.191406,-0.6875 1.843751,-0.8125 0.07422,-0.015625 0.144531,-0.050781 0.21875,-0.0625 1.246094,-0.175781 2.542968,0.195313 3.53125,1.06249999 l 2.6875,2.375 C 20.136719,4.8082134 21,6.7183694 21,8.7300884 v 5.2812496 c 0,3.855469 -3.144531,7 -7,7 H 5 c -1.644531,0 -3,-1.355469 -3,-3 0,-0.535156 0.15625,-1.03125 0.40625,-1.46875 C 1.5625,16.007432 1,15.073838 1,14.011338 1,13.476182 1.15625,12.980088 1.40625,12.542588 0.5625,12.007432 0,11.073838 0,10.011338 Z m 2,0 c 0,0.566406 0.433594,1 1,1 H 5.187499 C 5.074218,10.694932 5,10.362901 5,10.011338 V 9.0113384 H 3 c -0.566406,0 -1,0.433594 -1,0.9999996 z M 3,6.0113384 c 0,0.566406 0.433594,1 1,1 h 1 v -1.40625 l 0.281249,-0.28125 c 0,0 0.230469,-0.226562 0.3125,-0.3125 H 4 c -0.566406,0 -1,0.433594 -1,1 z m 0,7.9999996 c 0,0.566406 0.433594,1 1,1 h 2.999999 c 0.566406,0 1,-0.433594 1,-1 0,-0.566406 -0.433594,-1 -1,-1 H 4 c -0.566406,0 -1,0.433594 -1,1 z m 1,4 c 0,0.566406 0.433594,1 1,1 h 1.999999 c 0.566406,0 1,-0.433594 1,-1 0,-0.566406 -0.433594,-1 -1,-1 H 5 c -0.566406,0 -1,0.433594 -1,1 z M 6.999999,6.4488384 v 3.5624996 c 0,0.5625 0.4375,1 1,1 0.5625,0 1,-0.4375 1,-1 V 6.8863384 l 0.375,-0.28125 2.968751,-2.34375 1.25,1.5625 -2.3125,1.84375 c 0.167969,0.359375 0.417969,0.769531 0.78125,1.21875 0.867188,1.066406 2.285156,2.1249996 4.9375,2.1249996 v 2 c -2.867187,0 -4.84375,-1.144531 -6.062501,-2.40625 -0.167969,0.808594 -0.664062,1.507813 -1.34375,1.9375 0.25,0.4375 0.40625,0.933594 0.40625,1.46875 0,0.765625 -0.300781,1.46875 -0.78125,2 0.480469,0.53125 0.78125,1.234375 0.78125,2 0,0.351563 -0.07422,0.683594 -0.1875,1 H 14 c 2.773437,0 5,-2.226562 5,-5 V 8.7300884 c 0,-1.4375 -0.605469,-2.800781 -1.6875,-3.75 L 14.59375,2.6050889 c -0.488281,-0.429687 -1.085937,-0.628906 -1.6875,-0.59375 -0.0078,0 -0.07422,0.027344 -0.09375,0.03125 -0.03125,0.00391 -0.0625,-0.00391 -0.09375,0 -0.21875,0.046875 -0.640625,0.199219 -1.1875,0.53125 -0.07031,0.042969 -0.148437,0.109375 -0.21875,0.15625 L 9.374999,4.1988384 c -1.292969,1.105469 -2.164062,2.027344 -2.375,2.25 z"
     id="path2" />
</svg>
