<?xml version="1.0" encoding="UTF-8" standalone="no"?>
<svg
   viewBox="0 0 448 512"
   version="1.1"
   id="svg4"
   sodipodi:docname="paperRight.svg"
   inkscape:version="1.2.2 (732a01da63, 2022-12-09)"
   xmlns:inkscape="http://www.inkscape.org/namespaces/inkscape"
   xmlns:sodipodi="http://sodipodi.sourceforge.net/DTD/sodipodi-0.dtd"
   xmlns="http://www.w3.org/2000/svg"
   xmlns:svg="http://www.w3.org/2000/svg">
  <defs
     id="defs8" />
  <sodipodi:namedview
     id="namedview6"
     pagecolor="#505050"
     bordercolor="#eeeeee"
     borderopacity="1"
     inkscape:showpageshadow="0"
     inkscape:pageopacity="0"
     inkscape:pagecheckerboard="0"
     inkscape:deskcolor="#505050"
     showgrid="false"
     inkscape:zoom="2.0058594"
     inkscape:cx="223.84421"
     inkscape:cy="256"
     inkscape:window-width="1350"
     inkscape:window-height="1230"
     inkscape:window-x="1781"
     inkscape:window-y="35"
     inkscape:window-maximized="0"
     inkscape:current-layer="svg4" />
  <path
     d="m 75.430384,112.641 v -10.825 c 0,-43.612 40.519996,-76.691 83.038996,-65.546 25.629,-49.5 94.09,-47.45 117.982,0.747 41.28,-10.561 82.405,20.928 82.405,64.983 v 126.13 c 19.953,-7.427 43.308,-5.068 62.083,8.871 29.355,21.796 35.794,63.333 14.55,93.153 l -119.969,168.415 a 32,32 0 0 1 -26.062,13.432 H 66.561384 c -14.904,0 -27.835,-10.289 -31.182,-24.813 L 5.1953844,356.23 A 203.637,203.637 0 0 1 3.8440533e-4,310.564 V 179 c 0,-40.62 35.52299959467,-71.992 75.42999959467,-66.359 z m -27.427,197.922 c 0,11.731 1.334,23.469 3.965,34.886 L 79.293384,464 H 281.21338 l 115.196,-161.697 c 14.439,-20.27 -15.023,-42.776 -29.394,-22.605 l -27.128,38.079 c -8.995,12.626 -29.031,6.287 -29.031,-9.283 V 102 c 0,-25.645 -36.571,-24.81 -36.571,0.691 V 256 c 0,8.837 -7.163,16 -16,16 h -6.856 c -8.837,0 -16,-7.163 -16,-16 V 67 c 0,-25.663 -36.571,-24.81 -36.571,0.691 V 256 c 0,8.837 -7.163,16 -16,16 h -6.856 c -8.837,0 -16,-7.163 -16,-16 V 101.125 c 0,-25.672 -36.57,-24.81 -36.57,0.691 V 256 c 0,8.837 -7.163,16 -16,16 h -6.857 c -8.836996,0 -15.999996,-7.163 -15.999996,-16 v -76.309 c 0,-26.242 -36.57,-25.64 -36.57,-0.691 v 131.563 z"
     id="path2" />
</svg>
