<?xml version="1.0" encoding="UTF-8" standalone="no"?>
<svg
   viewBox="0 0 21 21.011339"
   version="1.1"
   id="svg4"
   sodipodi:docname="rockRight.svg"
   width="21"
   height="21.011339"
   inkscape:version="1.2.2 (732a01da63, 2022-12-09)"
   xmlns:inkscape="http://www.inkscape.org/namespaces/inkscape"
   xmlns:sodipodi="http://sodipodi.sourceforge.net/DTD/sodipodi-0.dtd"
   xmlns="http://www.w3.org/2000/svg"
   xmlns:svg="http://www.w3.org/2000/svg">
  <defs
     id="defs8" />
  <sodipodi:namedview
     id="namedview6"
     pagecolor="#505050"
     bordercolor="#eeeeee"
     borderopacity="1"
     inkscape:showpageshadow="0"
     inkscape:pageopacity="0"
     inkscape:pagecheckerboard="0"
     inkscape:deskcolor="#505050"
     showgrid="false"
     inkscape:zoom="32.09375"
     inkscape:cx="10.001947"
     inkscape:cy="10.048685"
     inkscape:window-width="1350"
     inkscape:window-height="1230"
     inkscape:window-x="1828"
     inkscape:window-y="12"
     inkscape:window-maximized="0"
     inkscape:current-layer="svg4" />
  <path
     d="m 10.994331,0.005669 c 1.0625,0 1.996094,0.5625 2.53125,1.40625 0.4375,-0.25 0.933594,-0.40625 1.46875,-0.40625 1.644531,0 2.999999,1.355469 2.999999,3 v 3.656249 l 0.125,0.15625 c 0.07422,0.08594 0.144531,0.164063 0.21875,0.25 0.511719,0.597656 1,1.230469 1.4375,1.875 l 0.3125,0.40625 c 0.425781,0.550781 0.6875,1.191406 0.8125,1.843751 0.01563,0.07422 0.05078,0.144531 0.0625,0.21875 0.175781,1.246094 -0.195313,2.542968 -1.0625,3.53125 l -2.375,2.6875 c -1.328124,1.511719 -3.23828,2.375 -5.249999,2.375 h -5.28125 c -3.855469,0 -7,-3.144531 -7,-7 v -9 c 0,-1.644531 1.355469,-3 3,-3 0.535156,0 1.03125,0.15625 1.46875,0.40625 0.535156,-0.84375 1.46875,-1.40625 2.53125,-1.40625 0.535156,0 1.03125,0.15625 1.46875,0.40625 0.535156,-0.84375 1.46875,-1.40625 2.53125,-1.40625 z m 0,2 c -0.566406,0 -1,0.433594 -1,1 v 2.187499 c 0.316406,-0.113281 0.648437,-0.187499 1,-0.187499 h 1 v -2 c 0,-0.566406 -0.433594,-1 -1,-1 z m 4,1 c -0.566406,0 -1,0.433594 -1,1 v 1 h 1.40625 l 0.28125,0.281249 c 0,0 0.226562,0.230469 0.3125,0.3125 V 4.005669 c 0,-0.566406 -0.433594,-1 -1,-1 z m -8,0 c -0.566406,0 -1,0.433594 -1,1 v 2.999999 c 0,0.566406 0.433594,1 1,1 0.566406,0 1,-0.433594 1,-1 V 4.005669 c 0,-0.566406 -0.433594,-1 -1,-1 z m -4,1 c -0.566406,0 -1,0.433594 -1,1 v 1.999999 c 0,0.566406 0.433594,1 1,1 0.566406,0 1,-0.433594 1,-1 V 5.005669 c 0,-0.566406 -0.433594,-1 -1,-1 z m 11.5625,2.999999 h -3.5625 c -0.5625,0 -1,0.4375 -1,1 0,0.5625 0.4375,1 1,1 h 3.125 l 0.28125,0.375 2.34375,2.968751 -1.5625,1.25 -1.84375,-2.3125 c -0.359375,0.167969 -0.769531,0.417969 -1.21875,0.78125 -1.066406,0.867188 -2.125,2.285156 -2.125,4.9375 h -2 c 0,-2.867187 1.144531,-4.84375 2.40625,-6.062501 -0.808594,-0.167969 -1.507813,-0.664062 -1.9375,-1.34375 -0.4375,0.25 -0.933594,0.40625 -1.46875,0.40625 -0.765625,0 -1.46875,-0.300781 -2,-0.78125 -0.53125,0.480469 -1.234375,0.78125 -2,0.78125 -0.351563,0 -0.683594,-0.07422 -1,-0.1875 v 4.187501 c 0,2.773437 2.226562,5 5,5 h 5.28125 c 1.4375,0 2.800781,-0.605469 3.75,-1.6875 l 2.374999,-2.71875 c 0.429687,-0.488281 0.628906,-1.085937 0.59375,-1.6875 0,-0.0078 -0.02734,-0.07422 -0.03125,-0.09375 -0.0039,-0.03125 0.0039,-0.0625 0,-0.09375 -0.04687,-0.21875 -0.199219,-0.640625 -0.53125,-1.1875 -0.04297,-0.07031 -0.109375,-0.148437 -0.15625,-0.21875 L 16.806831,9.380668 c -1.105469,-1.292969 -2.027344,-2.164062 -2.25,-2.375 z"
     id="path2" />
</svg>
