<?xml version="1.0" encoding="UTF-8" standalone="no"?>
<svg
   width="15.818139"
   height="21.864799"
   viewBox="0 0 15.818139 21.864799"
   stroke-width="1.5"
   fill="none"
   version="1.1"
   id="svg16"
   sodipodi:docname="scissors.svg"
   inkscape:version="1.2.2 (732a01da63, 2022-12-09)"
   xmlns:inkscape="http://www.inkscape.org/namespaces/inkscape"
   xmlns:sodipodi="http://sodipodi.sourceforge.net/DTD/sodipodi-0.dtd"
   xmlns="http://www.w3.org/2000/svg"
   xmlns:svg="http://www.w3.org/2000/svg">
  <defs
     id="defs20" />
  <sodipodi:namedview
     id="namedview18"
     pagecolor="#505050"
     bordercolor="#eeeeee"
     borderopacity="1"
     inkscape:showpageshadow="0"
     inkscape:pageopacity="0"
     inkscape:pagecheckerboard="0"
     inkscape:deskcolor="#505050"
     showgrid="false"
     inkscape:zoom="42.791667"
     inkscape:cx="8.2492697"
     inkscape:cy="10.773126"
     inkscape:window-width="3440"
     inkscape:window-height="1369"
     inkscape:window-x="-8"
     inkscape:window-y="-8"
     inkscape:window-maximized="1"
     inkscape:current-layer="svg16" />
  <path
     d="M 5.3998089,8.22163 V 2.36153 C 5.3998089,1.47151 6.1213087,0.75 7.0113087,0.75 v 0 c 0.89,0 1.6115,0.72151 1.6115,1.61153 v 4.83458"
     stroke="currentColor"
     stroke-linecap="round"
     id="path6" />
  <path
     d="m 3.2026089,11.591 -2.1757,-7.25238 c -0.25380001,-0.84597 0.2331,-1.73614 1.0823,-1.97878 v 0 c 0.8451,-0.24144 1.7252,0.25106 1.9615,1.09759 l 1.3295,4.76406"
     stroke="currentColor"
     stroke-linecap="round"
     id="path8" />
  <path
     d="m 11.929259,7.99985 -1.05554,2.34145 c -0.36472,0.809 -0.0067,1.7607 0.80085,2.1287 0.81221,0.3701 1.77057,0.0096 2.13741,-0.8041 l 1.05554,-2.3414 c 0.36472,-0.80908 0.0067,-1.76074 -0.80084,-2.12876 -0.81222,-0.37015 -1.77058,-0.0096 -2.13742,0.80411 z"
     stroke="currentColor"
     stroke-linecap="round"
     id="path10" />
  <path
     d="m 7.8294087,11.0115 v 0 c -0.2047,-0.5675 -0.1806,-1.1923 0.0674,-1.7423 l 1.0731,-2.38046 c 0.3606,-0.79982 1.3025703,-1.1542 2.1009003,-0.79038 v 0 c 0.81311,0.37056 1.15895,1.33996 0.76398,2.1415 l -0.13564,0.27525"
     stroke="currentColor"
     stroke-linecap="round"
     id="path12" />
  <path
     d="m 5.6920089,16.4267 -0.4921,-0.984 c -0.0489,-0.098 0.0026,-0.2164 0.1077,-0.2473 l 3.5506998,-1.0443 c 0.71177,-0.2093 1.1723303,-0.8973 1.09467,-1.6351 v 0 c -0.08809,-0.8368 -0.83277,-1.4472 -1.67057,-1.3692 l -4.7879998,0.4454 c 0,0 -3.80900001,0.586 -2.4905,4.395 1.3185,3.8091 1.758,5.1276 4.6881,5.1276 1.9044998,0 4.6880501,0 4.6880501,0 h 0.293 c 2.34643,0 4.24858,-1.9021 4.24858,-4.2485 v 0 l 0.1465,-8.20419"
     stroke="currentColor"
     stroke-linecap="round"
     id="path14" />
</svg>
