<?xml version="1.0" encoding="UTF-8" standalone="no"?>
<svg
   width="15.818139"
   height="21.864799"
   viewBox="0 0 15.818139 21.864799"
   stroke-width="1.5"
   fill="none"
   version="1.1"
   id="svg16"
   sodipodi:docname="scissorsRight.svg"
   inkscape:version="1.2.2 (732a01da63, 2022-12-09)"
   xmlns:inkscape="http://www.inkscape.org/namespaces/inkscape"
   xmlns:sodipodi="http://sodipodi.sourceforge.net/DTD/sodipodi-0.dtd"
   xmlns="http://www.w3.org/2000/svg"
   xmlns:svg="http://www.w3.org/2000/svg">
  <defs
     id="defs20" />
  <sodipodi:namedview
     id="namedview18"
     pagecolor="#505050"
     bordercolor="#eeeeee"
     borderopacity="1"
     inkscape:showpageshadow="0"
     inkscape:pageopacity="0"
     inkscape:pagecheckerboard="0"
     inkscape:deskcolor="#505050"
     showgrid="false"
     inkscape:zoom="42.791667"
     inkscape:cx="8.2492697"
     inkscape:cy="10.808179"
     inkscape:window-width="1350"
     inkscape:window-height="1230"
     inkscape:window-x="1781"
     inkscape:window-y="66"
     inkscape:window-maximized="0"
     inkscape:current-layer="svg16" />
  <path
     d="M 10.41833,8.22163 V 2.36153 C 10.41833,1.47151 9.6968303,0.75 8.8068303,0.75 v 0 c -0.89,0 -1.6115,0.72151 -1.6115,1.61153 v 4.83458"
     stroke="currentColor"
     stroke-linecap="round"
     id="path6" />
  <path
     d="m 12.61553,11.591 2.1757,-7.25238 c 0.2538,-0.84597 -0.2331,-1.73614 -1.0823,-1.97878 v 0 c -0.8451,-0.24144 -1.7252,0.25106 -1.9615,1.09759 l -1.3295,4.76406"
     stroke="currentColor"
     stroke-linecap="round"
     id="path8" />
  <path
     d="M 3.88888,7.99985 4.94442,10.3413 C 5.30914,11.1503 4.95112,12.102 4.14357,12.47 3.33136,12.8401 2.373,12.4796 2.00616,11.6659 L 0.95062001,9.3245 C 0.58590001,8.51542 0.94392001,7.56376 1.75146,7.19574 2.56368,6.82559 3.52204,7.18614 3.88888,7.99985 Z"
     stroke="currentColor"
     stroke-linecap="round"
     id="path10" />
  <path
     d="m 7.9887303,11.0115 v 0 c 0.2047,-0.5675 0.1806,-1.1923 -0.0674,-1.7423 l -1.0731,-2.38046 C 6.4876303,6.08892 5.54566,5.73454 4.74733,6.09836 v 0 C 3.93422,6.46892 3.58838,7.43832 3.98335,8.23986 l 0.13564,0.27525"
     stroke="currentColor"
     stroke-linecap="round"
     id="path12" />
  <path
     d="m 10.12613,16.4267 0.4921,-0.984 c 0.0489,-0.098 -0.0026,-0.2164 -0.1077,-0.2473 L 6.9598303,14.1511 C 6.2480603,13.9418 5.7875,13.2538 5.8651603,12.516 v 0 c 0.08809,-0.8368 0.83277,-1.4472 1.67057,-1.3692 l 4.7879997,0.4454 c 0,0 3.809,0.586 2.4905,4.395 -1.3185,3.8091 -1.758,5.1276 -4.6881,5.1276 -1.9044997,0 -4.68805,0 -4.68805,0 h -0.293 c -2.34643,0 -4.24857999,-1.9021 -4.24857999,-4.2485 v 0 l -0.1465,-8.20419"
     stroke="currentColor"
     stroke-linecap="round"
     id="path14" />
</svg>
