<?xml version="1.0" encoding="UTF-8" standalone="no"?>
<svg
   width="15.000002"
   height="21"
   viewBox="0 0 15.000002 21"
   stroke-width="1.5"
   fill="none"
   version="1.1"
   id="svg16"
   sodipodi:docname="scissors.svg"
   inkscape:version="1.2.2 (732a01da63, 2022-12-09)"
   xmlns:inkscape="http://www.inkscape.org/namespaces/inkscape"
   xmlns:sodipodi="http://sodipodi.sourceforge.net/DTD/sodipodi-0.dtd"
   xmlns="http://www.w3.org/2000/svg"
   xmlns:svg="http://www.w3.org/2000/svg">
  <defs
     id="defs20" />
  <sodipodi:namedview
     id="namedview18"
     pagecolor="#505050"
     bordercolor="#eeeeee"
     borderopacity="1"
     inkscape:showpageshadow="0"
     inkscape:pageopacity="0"
     inkscape:pagecheckerboard="0"
     inkscape:deskcolor="#505050"
     showgrid="true"
     inkscape:zoom="42.791667"
     inkscape:cx="7.5014605"
     inkscape:cy="10.527751"
     inkscape:window-width="1686"
     inkscape:window-height="1230"
     inkscape:window-x="1536"
     inkscape:window-y="16"
     inkscape:window-maximized="0"
     inkscape:current-layer="svg16">
    <inkscape:grid
       type="xygrid"
       id="grid220" />
  </sodipodi:namedview>
  <path
     d="M 5.1205235,8.062476 V 2.5054696 c 0,-0.8439868 0.6841827,-1.52817918 1.5281505,-1.52817918 v 0 c 0.8439678,0 1.5281507,0.68419238 1.5281507,1.52817918 v 4.5845279"
     stroke="currentColor"
     stroke-linecap="round"
     id="path6"
     style="stroke-width:1.42242" />
  <path
     d="M 3.0369661,11.257576 0.97379672,4.3803014 C 0.73312361,3.5780863 1.1948405,2.7339572 2.0001185,2.503867 v 0 C 2.8015086,2.2749146 3.6360884,2.7419418 3.8601666,3.5446879 l 1.2607362,4.5176553"
     stroke="currentColor"
     stroke-linecap="round"
     id="path8"
     style="stroke-width:1.42242" />
  <path
     d="m 11.31226,7.8521668 -1.000946,2.2203462 c -0.3458557,0.767157 -0.0064,1.669634 0.759429,2.0186 0.770201,0.350958 1.678993,0.0091 2.02686,-0.762511 l 1.000946,-2.2202986 c 0.345856,-0.767233 0.0064,-1.6696713 -0.75942,-2.0186568 -0.77021,-0.3510052 -1.679003,-0.0091 -2.026869,0.7625202 z"
     stroke="currentColor"
     stroke-linecap="round"
     id="path10"
     style="stroke-width:1.42242" />
  <path
     d="m 7.4244606,10.708049 v 0 C 7.230348,10.169901 7.2532015,9.5774174 7.4883745,9.0558644 L 8.5059721,6.7985251 C 8.8479213,6.0400731 9.7411714,5.7040222 10.49821,6.0490248 v 0 c 0.771055,0.3513941 1.099008,1.2706552 0.724466,2.0307383 l -0.128624,0.2610133"
     stroke="currentColor"
     stroke-linecap="round"
     id="path12"
     style="stroke-width:1.42242" />
  <path
     d="M 5.3976105,15.843166 4.9309626,14.91006 c -0.046371,-0.09293 0.00247,-0.205207 0.1021296,-0.234509 l 3.3670521,-0.990287 c 0.6749561,-0.198475 1.1116955,-0.85089 1.0380519,-1.55053 v 0 C 9.3546624,11.341214 8.6484984,10.762385 7.8540307,10.836351 l -4.5403569,0.422363 c 0,0 -3.61199264,0.555691 -2.36168749,4.167684 1.25030519,3.612087 1.66707349,4.862392 4.44562419,4.862392 1.805996,0 4.4455767,0 4.4455767,0 h 0.2778458 c 2.225069,0 4.028836,-1.80372 4.028836,-4.028761 v 0 l 0.138923,-7.7798556"
     stroke="currentColor"
     stroke-linecap="round"
     id="path14"
     style="stroke-width:1.42242" />
</svg>
